<?xml version="1.0" encoding="UTF-8" standalone="no"?>
<!-- Generator: Fusion 360, Shaper Origin Export Add-In, Version 1.6.10  -->

<svg
   shaper:fusionaddin="version:1.6.10"
   width="6.989872cm"
   height="3.7846036cm"
   version="1.1"
   x="0cm"
   y="0cm"
   viewBox="0 0 6.9898717 3.7846035"
   enable-background="new 0 0 6.8 6.8818407"
   xml:space="preserve"
   id="svg1774"
   sodipodi:docname="MythDigLogoText.svg"
   inkscape:version="1.2.2 (732a01da63, 2022-12-09)"
   xmlns:inkscape="http://www.inkscape.org/namespaces/inkscape"
   xmlns:sodipodi="http://sodipodi.sourceforge.net/DTD/sodipodi-0.dtd"
   xmlns="http://www.w3.org/2000/svg"
   xmlns:svg="http://www.w3.org/2000/svg"
   xmlns:shaper="http://www.shapertools.com/namespaces/shaper"><defs
     id="defs1778" /><sodipodi:namedview
     id="namedview1776"
     pagecolor="#ffffff"
     bordercolor="#666666"
     borderopacity="1.0"
     inkscape:showpageshadow="2"
     inkscape:pageopacity="0.0"
     inkscape:pagecheckerboard="0"
     inkscape:deskcolor="#d1d1d1"
     inkscape:document-units="cm"
     showgrid="false"
     inkscape:zoom="4.4828729"
     inkscape:cx="44.27964"
     inkscape:cy="97.705202"
     inkscape:window-width="3440"
     inkscape:window-height="1369"
     inkscape:window-x="-8"
     inkscape:window-y="-8"
     inkscape:window-maximized="1"
     inkscape:current-layer="g3335" /><g
     id="g3335"
     transform="translate(1.9565105,0.67567945)"><path
       id="path1756"
       style="fill:#960000;fill-opacity:1;stroke:none;stroke-width:0.01;stroke-dasharray:none;stroke-opacity:1"
       d="M 0,0 0.40591838,0.76672323 1.0373527,1.1275798 1.1275798,1.8041276 1.5334981,1.5334981 1.9394165,1.8041276 2.0296436,1.1275798 2.6610779,0.76672323 3.0669963,0 2.6159644,0.36080485 1.5334981,0.5863208 0.4510319,0.36080485 Z m 0.4510319,0.49614543 0.9020638,0.2705778 -0.1804024,0.22551595 z m 2.1649325,0 L 1.894303,0.99223918 1.7139006,0.76672323 Z M 1.4432711,0.85695028 1.4883846,1.3079822 1.3079822,1.4432711 1.2611633,1.0920264 Z m 0.1804024,0 L 1.8067114,1.0856702 1.7590141,1.4432711 1.5786117,1.3079822 Z" /><path
       d="M 1.7711268,3.108924 V 1.7837922 l 0.162261,0.108174 z"
       stroke="#646464"
       stroke-width="0.001cm"
       stroke-linecap="round"
       stroke-linejoin="round"
       fill="none"
       id="path1766"
       style="fill:#960000;fill-opacity:1;stroke:none;stroke-width:0.01;stroke-dasharray:none" /><path
       d="M 1.3058838,3.108924 V 1.7837922 l -0.162261,0.108174 z"
       stroke="#646464"
       stroke-width="0.001cm"
       stroke-linecap="round"
       stroke-linejoin="round"
       fill="none"
       id="path1768"
       style="fill:#960000;fill-opacity:1;stroke:none;stroke-width:0.01;stroke-dasharray:none" /><path
       d="m 1.5610569,1.6512628 0.022552,1.3756454 0.157861,-1.2628876 z"
       stroke="#646464"
       stroke-width="0.001cm"
       stroke-linecap="round"
       stroke-linejoin="round"
       fill="none"
       id="path1770"
       style="fill:#960000;fill-opacity:1;stroke:none;stroke-width:0.01;stroke-dasharray:none" /><path
       d="M 1.3355412,1.7640206 1.5159537,1.6512628 1.4934022,3.0269082 Z"
       stroke="#646464"
       stroke-width="0.001cm"
       stroke-linecap="round"
       stroke-linejoin="round"
       fill="none"
       id="path1772"
       style="fill:#960000;fill-opacity:1;stroke:none;stroke-width:0.01;stroke-dasharray:none" /><g
       aria-label="8517"
       transform="rotate(-133.65298,1.5566872,1.4962335)"
       id="text2627"
       style="font-size:1.05833px;line-height:1.25;font-family:'Mandalore Title';-inkscape-font-specification:'Mandalore Title, Normal';fill:#960000;stroke-width:0.0264583"><path
         d="m 3.6303511,1.7504183 q 0.046474,0.010408 0.063643,0.040282 0.018202,0.030106 0.00779,0.076579 l -0.040245,0.179698 q -0.010408,0.046474 -0.039712,0.06594 -0.028271,0.019698 -0.074745,0.00929 L 3.3601587,2.0803434 q -0.02995,-0.00671 -0.047366,-0.025792 -0.016615,-0.01782 -0.019558,-0.043424 -0.030154,0.047474 -0.09625,0.032671 L 3.0059265,2.0010102 q -0.046474,-0.010408 -0.064676,-0.040514 -0.01717,-0.029874 -0.00676,-0.076348 l 0.040245,-0.179698 q 0.010408,-0.046474 0.03868,-0.066171 0.029304,-0.019466 0.075778,-0.00906 l 0.1910582,0.042789 q 0.066096,0.014803 0.073121,0.070603 0.013582,-0.021903 0.036442,-0.031967 0.023662,-0.0088 0.053611,-0.00209 z M 3.1008961,1.7706643 3.0768421,1.87807 3.2431144,1.915308 3.2604614,1.837852 3.3957513,1.868151 3.3784043,1.945607 3.5353818,1.980763 3.5594358,1.8733573 Z"
         id="path5207" /><path
         d="M 2.9088089,2.2959276 2.7951338,2.4474727 2.9322863,2.5503518 3.0459614,2.3988068 3.3947689,2.66045 3.1998066,2.9203625 3.0897459,2.8378051 3.203421,2.6862601 3.0747348,2.5897315 3.0201199,2.6625409 q -0.028577,0.038098 -0.063291,0.04381 -0.033867,0.00635 -0.071965,-0.02223 L 2.6799817,2.5304378 q -0.038098,-0.028578 -0.042329,-0.063503 -0.00338,-0.03429 0.025193,-0.072388 L 2.7987483,2.2133703 Z"
         id="path5209" /><path
         d="M 2.8053502,3.2711143 2.6209685,3.3874515 2.2233889,2.7573314 2.3361661,2.6861737 2.660329,3.1999364 2.7319335,3.1547569 Z"
         id="path5211" /><path
         d="m 1.9500806,2.8693881 -0.025093,0.6242872 0.1806319,-0.035821 0.026763,0.1349549 -0.3187012,0.063201 -0.026968,-0.135993 q -0.00185,-0.00934 -0.00141,-0.023456 -3.942e-4,-0.012869 0.00107,-0.021792 l 0.02564,-0.5780014 z"
         id="path5213" /></g><g
       aria-label="BOUNTY"
       transform="scale(1.0473188,0.95481911)"
       id="text2684"
       style="font-size:1.18231px;line-height:1.25;font-family:'Mandalore Leftalic';-inkscape-font-specification:'Mandalore Leftalic, Normal';fill:#960000;stroke-width:0.0277103"><path
         d="M -1.3762727,2.3303773 H -1.6907671 L -1.8681136,1.4980311 h 0.3144944 q 0.053204,0 0.087491,0.027193 0.034287,0.026011 0.044928,0.079215 l 0.04611,0.2139981 q 0.014188,0.070939 -0.040199,0.089856 0.062662,0.021282 0.080397,0.096949 l 0.04611,0.2187273 q 0.011823,0.053204 -0.011823,0.080397 -0.022464,0.026011 -0.075668,0.026011 z m -0.202175,-0.3452345 -0.033105,-0.1537003 h 0.087491 l -0.037834,-0.1797111 h -0.121778 l 0.1111372,0.5249456 h 0.1217779 l -0.040198,-0.1915342 z"
         id="path5216" /><path
         d="m -0.89034411,2.3303773 q 0.053204,0 0.0756678,-0.026011 0.0236462,-0.027193 0.0118231,-0.080397 L -0.93527189,1.604439 Q -0.94591269,1.551235 -0.98019969,1.525224 -1.0144867,1.498031 -1.0676906,1.498031 h -0.2045396 q -0.1087726,0 -0.087491,0.1064079 l 0.1324187,0.6195304 q 0.023646,0.1064079 0.1324188,0.1064079 z M -1.0854253,2.1352962 q -0.00236,-0.00236 -0.00591,-0.00236 l -0.00473,-0.00236 -0.00355,-0.00355 q 0,0.00236 -0.00236,-0.00236 -0.00236,-0.00591 -0.00236,-0.00828 l -0.00236,-0.00355 q 0,-0.00118 -0.00118,-0.00236 -0.00118,-0.00118 -0.00118,-0.00118 l -0.00118,-0.00473 -0.00236,-0.00355 q -0.00236,-0.00236 -0.00236,-0.00473 l -0.00118,-0.00591 -0.00355,-0.016552 0.011823,-0.00946 -0.00591,-0.01537 q -0.011823,-0.00946 -0.016552,-0.022464 l -0.00118,-0.00828 q 0,-0.00236 -0.00236,-0.00236 l 0.00118,0.00473 q 0,0 -0.00236,0.00118 -0.00118,0.00118 -0.00118,0.00355 l -0.00355,0.00118 0.00236,0.013005 0.00355,0.020099 q 0.00236,0.00709 0.00118,0.00828 l -0.014188,0.062663 v 0.00355 q 0,0.00118 -0.00118,0.00118 l -0.00118,-0.00236 0.00355,-0.031922 q -0.00118,-0.00473 0,-0.00709 0.00118,-0.00355 0.00118,-0.00591 0.00236,-0.00709 0.00236,-0.013005 0,-0.00591 0.00236,-0.013005 -0.00118,-0.00473 -0.00709,-0.00473 -0.00355,0 -0.00236,0.00473 l -0.00828,0.066209 -0.00236,0.00236 q -0.00355,0 -0.00355,-0.00236 L -1.16464,2.12702 V 2.12584 q 0,-0.00118 0.00118,-0.00236 l 0.00118,-0.014188 q 0,-0.00118 0,-0.00118 0.00118,-0.00118 0.00118,-0.00236 l 0.00473,-0.044928 q -0.00118,-0.00118 -0.00118,-0.00118 0.00118,-0.00118 0.00118,-0.00118 0.00118,-0.00709 0.00355,-0.010641 0.00355,-0.00473 0.00591,-0.010641 0,-0.00355 0.00118,-0.010641 0.00118,-0.00828 0.00236,-0.00828 V 2.012351 L -1.1481,1.992252 -1.15638,1.965059 q -0.00118,-0.00591 -0.00591,-0.00946 -0.00355,-0.00473 -0.00828,-0.00709 0.00118,0.00118 -0.00236,0.00118 -0.00236,0 -0.00709,-0.00236 -0.00355,-0.00355 -0.00591,-0.00473 0,0 -0.00118,-0.00118 0,-0.00118 -0.00118,-0.00355 0,-0.00236 -0.00236,-0.00473 l -0.00118,0.00118 -0.00118,-0.00236 -0.00118,-0.00591 q 0,-0.00118 -0.00355,-0.00828 Q -1.2001,1.914219 -1.20247,1.913039 -1.20483,1.910679 -1.2072,1.908309 L -1.21548,1.887027 q 0,-0.00236 -0.00118,-0.00236 -0.00118,-0.00118 -0.00355,-0.00355 L -1.22257,1.870476 Q -1.22493,1.859835 -1.22021,1.859835 -1.21548,1.858655 -1.2143,1.851555 -1.21785,1.83855 -1.21548,1.83855 -1.21312,1.83737 -1.2143,1.83619 q 0.00118,0 0.00118,-0.00355 -0.00236,-0.00709 -0.00236,-0.011823 0,-0.00946 -0.00118,-0.014188 L -1.21784,1.804269 Q -1.21902,1.799539 -1.2202,1.797179 -1.22138,1.794819 -1.22256,1.791269 L -1.22611,1.774717 q -0.00236,-0.013005 -0.00118,-0.014188 -0.00236,-0.00709 0,-0.00828 0.00236,-0.00236 0.00591,-0.00591 l 0.010641,-0.01537 q 0.00236,-0.00236 0.00473,-0.00355 0.00355,-0.00118 0.00709,-0.00355 l 0.00355,-0.00236 -0.00118,-0.00118 h 0.00118 0.00473 q 0.00355,0 0.00355,-0.00473 0.00236,-0.00236 0.00473,-0.00236 0.00236,0 0.00355,-0.00118 l -0.00236,-0.00355 q -0.00118,-0.00118 -0.00473,-0.01537 l -0.00236,-0.01537 -0.00236,-0.011823 q -0.00236,-0.00355 0.00236,-0.00591 0.00118,0 0.00118,-0.00118 0.00118,-0.00118 0.00118,-0.00236 -0.00118,-0.00355 0,-0.00473 0.00118,-0.011823 0.00355,-0.014188 0.00355,-0.00236 0.010641,-0.00473 l 0.00236,-0.00236 0.00591,-0.00118 q 0.00236,0 0.00473,0.00236 h 0.00591 q 0.010641,0.00355 0.016552,0.011823 0.00709,0.00828 0.013005,0.017735 l 0.00118,0.00118 q 0,-0.00118 0.00236,0.00118 l 0.00473,0.014188 q 0,0.00236 -0.00118,0.00355 l 0.00709,0.031922 q 0.00118,0.00236 0.00473,0.00355 0.00355,0 0.00473,0.00118 0.00355,0.00355 0.00355,0.00591 0,0.00236 0.00236,0.00236 h 0.00118 q 0.00591,-0.016552 0.00709,-0.035469 0.00236,-0.018917 0.00118,-0.035469 -0.00118,-0.00118 -0.00118,-0.00946 v -0.00946 q 0.00118,-0.00118 0.00118,-0.00355 l -0.00118,-0.00591 q 0,0 -0.00118,-0.00473 0,-0.00591 0.00236,-0.00591 0.00236,0 0.00473,0.00709 l 0.00355,0.017735 q 0.00473,0.017735 0.021282,0.017735 0.00236,0 0.00591,0 0.00355,-0.00118 0.00709,-0.00118 0.00355,0 0.00355,0.00118 0.00118,0.00473 -0.00473,0.010641 -0.00236,0.00236 -0.00946,0.00828 -0.00709,0.00473 -0.00946,0.00709 -0.00946,0.00709 -0.011823,0.020099 -0.00118,0.011823 -0.00118,0.026011 0.00118,0.00118 0.00236,0.00236 0.00236,0 0.00236,0 0.014188,0.00709 0.022464,0.026011 0.00946,0.017735 0.011823,0.03074 l 0.00236,0.00118 q 0.00355,0.00236 0.011823,0.00709 0.00946,0.00473 0.011823,0.00591 0.00828,0.00473 0.01537,0.010641 0.007094,0.00473 0.0118231,0.00828 0.007094,0.00828 0.0165523,0.014188 l 0.003547,0.00236 0.002365,0.00236 0.005912,0.00236 0.002365,0.010641 q 0,0.00236 0.001182,0.00355 0.001182,0.00118 0.002365,0.00355 0.001182,0.00355 0.001182,0.00946 l 0.001182,0.011823 q 0.001182,0.00709 -0.002365,0.013005 -0.002365,0.00118 -0.004729,0.00355 -0.002365,0.00118 -0.005912,0.00236 h -0.001182 v -0.00118 q -0.001182,-0.00236 0.003547,-0.00591 0.004729,-0.00355 0.002365,-0.013005 -0.001182,-0.00591 -0.003547,-0.010641 -0.001182,-0.00591 -0.008276,-0.00828 l -0.005912,-0.00236 q -0.004729,-0.00118 -0.005912,-0.00355 -0.001182,-0.00355 -0.007094,-0.00591 h -0.003547 q -0.007094,0 -0.008276,0.00118 l -0.0177347,0.00236 v 0.00473 q 0.00236,0.00236 0.00355,0.00236 0.00236,0 0.00236,-0.00118 0,-0.00118 0.00118,-0.00118 0.00118,0 0.00236,0.00118 0.00118,0 0.00118,0.00118 0.005912,0.014188 0.0118231,0.029558 0.007094,0.014188 0.009458,0.028376 l 0.003547,0.00709 q 0,0.00118 -0.001182,0.00236 0,0 0,0.00236 0.002365,0.00591 0.004729,0.010641 0.002365,0.00355 0.003547,0.00828 l 0.001182,0.00473 q -0.005912,0.00473 -0.008276,0.00946 -0.001182,0.00355 -0.003547,0.00946 -0.002365,0.00236 -0.002365,0.00591 0,0.00118 -0.002365,0.00591 l -0.002365,-0.00828 V 1.963849 l -0.001182,0.00236 q -0.003547,0.00355 -0.002365,0.00355 -0.004729,0 -0.005912,-0.00473 v -0.00118 q 0.002365,-0.00355 0,-0.013005 -0.001182,-0.00946 -0.001182,-0.011823 l -0.00236,-0.00709 0.00118,-0.00118 q 0,-0.00118 -0.00118,-0.00118 0,-0.00118 0,-0.00118 l -0.027193,-0.037834 q -0.00946,-0.00709 -0.010641,-0.01537 0,-0.00473 -0.00236,-0.00709 -0.00591,-0.00591 -0.00591,-0.00709 h -0.00118 q -0.00473,0 -0.00473,0.00236 l 0.00118,0.00473 q 0.011823,0.022464 0.020099,0.041381 0.00828,0.018917 0.022464,0.039016 -0.00236,-0.00828 0.010641,0.022464 0.007094,0.00946 0.0118231,0.016552 0.005912,0.00709 0.0141877,0.016552 0.008276,0.00236 0.009458,0.010641 0.001182,0.00236 0.004729,0.00828 0.004729,0.00591 0.009458,0.014188 l 0.005912,0.00709 v 0.00236 q 0,0.00118 -0.001182,0.00236 0,0.00118 0.001182,0.00355 l 0.003547,0.013005 -0.004729,-0.00355 v 0.00118 q 0.002365,0.00473 0.005912,0.010641 0.004729,0.00473 0.007094,0.010641 0,0.00709 -0.001182,0.00828 0,0.00118 0.002365,0.00591 0.002365,0.00473 0.003547,0.00591 0.001182,0.00236 0.002365,0.00355 0.001182,0 0.001182,0.00118 0,0.00118 -0.001182,0.00236 0,0 0,0 0,0 -0.001182,-0.00118 -0.001182,-0.00236 -0.003547,-0.00236 -0.002365,0 -0.002365,0.00236 0,0.00118 -0.001182,0.00236 V 2.11165 q 0,0 -0.002365,-0.00118 -0.001182,-0.00118 -0.001182,0 -0.002365,0.00118 -0.002365,0.00355 0.001182,0.00118 -0.003547,0.00118 0,0 0.001182,0.00118 0.001182,0 0,0 l -0.001182,0.00236 q 0.004729,0.00355 0.004729,0.00355 0.001182,-0.00118 0.004729,0.00118 0,0.00236 -0.001182,0.00236 v 0.00118 l 0.001182,0.00355 v 0.00118 q 0.001182,0.00118 -0.001182,0.00118 h -0.004729 l -0.002365,-0.00236 -0.004729,0.00355 q -0.002365,0 -0.002365,-0.00118 l -0.002365,-0.00236 -0.002365,0.00828 0.001182,0.00591 q 0,0.00236 0.002365,0.00236 V 2.1483 h -0.001182 -0.002365 q 0,-0.00355 -0.002365,-0.00355 -0.002365,-0.00946 -0.007094,-0.013005 l -0.007094,-0.00828 h -0.005912 v -0.00118 q 0,0.00118 -0.002365,0.00118 -0.003547,0 -0.004729,-0.00473 -0.003547,0.00828 -0.005912,0.00828 l -0.004729,-0.00355 -0.003547,0.00355 q 0,-0.00236 0.001182,-0.00473 0.002365,-0.00236 0.001182,-0.00709 0,0 -0.002365,-0.00118 -0.001182,-0.00236 -0.003547,-0.00236 v 0.00118 0.011823 q 0.00118,0.00355 -0.00355,0.00828 h -0.00236 q -0.00118,0 -0.00236,0.00355 0,0.00236 0,0.00236 0,0.00473 -0.00236,0.00828 -0.00118,0.00236 -0.00118,0.00591 -0.00118,0 0,0.00473 v 0.017735 q 0,0.00355 0,0.00946 0.00118,0.00473 0.00236,0.010641 v 0.00355 h -0.04611 l -0.00473,-0.00946 q -0.00236,-0.00236 -0.00236,-0.00591 l -0.00118,-0.00473 q -0.00591,-0.014188 -0.010641,-0.018917 -0.00236,-0.00473 -0.00591,-0.013005 -0.00236,-0.00946 -0.00355,-0.011823 z m -0.089855,-0.2340974 q 0,0 0,0.00118 0.00118,0.00118 0.00118,0.00236 0.00118,0 0.00236,0.00118 l 0.00236,0.010641 q -0.00118,0 -0.00118,0.00236 v 0.00118 q 0.00118,0.00828 0.00828,0.013005 l -0.00118,-0.00473 h 0.00118 l -0.00236,-0.00828 q 0.00118,0.00118 -0.00118,-0.00236 -0.00118,-0.00355 -0.00118,-0.00591 v -0.00236 h 0.00118 v -0.00355 q -0.00118,-0.00355 0.00236,-0.00709 0.00355,-0.00355 0.00118,-0.011823 -0.00709,-0.00591 -0.00946,-0.013005 -0.00236,-0.00828 -0.00473,-0.014188 v -0.00236 q 0,-0.00118 -0.00355,-0.00355 -0.00236,0.00355 -0.00236,0.00709 0.00118,0.00236 0.00118,0.00591 z m 0.19981037,0.1442418 0.002365,0.00591 q 0.001182,0.00591 0.004729,0.00946 h 0.002365 q 0,0.00473 0.004729,0.00473 h 0.001182 l -0.001182,-0.00828 q -0.002365,-0.00591 -0.004729,-0.013005 -0.002365,-0.00828 -0.007094,-0.014188 h -0.001182 q 0,0.00236 -0.001182,0.00709 0,0.00355 0,0.00591 z m -0.0106408,-0.020099 q 0.001182,0.00355 0.004729,0.00473 0.001182,-0.00118 0.001182,-0.00709 l -0.001182,-0.00236 -0.004729,0.00118 z"
         id="path5218" /><path
         d="m -0.60895517,2.3303773 q -0.10995483,0 -0.13241872,-0.1064079 L -0.8962565,1.4980311 h 0.15133568 L -0.600679,2.176677 h 0.12177793 L -0.62314289,1.4980311 h 0.15133568 l 0.1548826,0.7259383 q 0.0118231,0.053204 -0.0118231,0.080397 -0.0224639,0.026011 -0.0756678,0.026011 z"
         id="path5220" /><path
         d="m 0.06496071,2.3303773 -0.2246389,-0.3629691 0.07685015,0.3629691 H -0.23298141 L -0.4103279,1.4980311 h 0.12296023 l 0.23409738,0.4019854 -0.08630863,-0.4019854 h 0.15015337 l 0.1773465,0.8323462 z"
         id="path5222" /><path
         d="M 0.46458262,1.4980311 0.4976873,1.6517314 H 0.37709168 L 0.5213335,2.3303773 H 0.36999782 L 0.225756,1.6517314 H 0.10516038 L 0.0720557,1.4980311 Z"
         id="path5224" /><path
         d="m 0.67030539,1.4980311 0.118231,0.2128158 0.0260108,-0.2128158 h 0.15606492 l -0.065027,0.4161731 0.0886733,0.4161731 H 0.84292264 L 0.7542494,1.9130219 0.51424047,1.4980311 Z"
         id="path5226" /></g><g
       aria-label="HUNTERS"
       transform="scale(0.96824571,1.0327957)"
       id="text2746"
       style="font-size:1.09304px;line-height:1.25;font-family:'Mandalore Super-Italic';-inkscape-font-specification:'Mandalore Super-Italic';fill:#960000;stroke-width:0.027326"><path
         d="M 2.4013441,1.3849326 2.3007844,1.6920769 h 0.110397 L 2.5117411,1.3849326 H 2.6516502 L 2.4013441,2.1544328 H 2.261435 L 2.3652738,1.8363581 H 2.2548767 L 2.1510379,2.1544328 H 2.0111288 L 2.261435,1.3849326 Z"
         id="path5192" /><path
         d="m 2.5598353,2.1544328 q -0.1016527,0 -0.069955,-0.098374 L 2.7084888,1.3849326 H 2.8483979 L 2.6439994,2.0123376 H 2.7565825 L 2.960981,1.3849326 h 0.1399091 l -0.218608,0.6711266 q -0.015302,0.049187 -0.05028,0.074327 -0.033884,0.024047 -0.083071,0.024047 z"
         id="path5194" /><path
         d="M 3.1828673,2.1544328 3.1555413,1.8188695 3.0462373,2.1544328 H 2.9074213 L 3.1577274,1.3849326 h 0.1136762 l 0.015302,0.3716336 0.1213275,-0.3716336 h 0.138816 L 3.2965435,2.1544328 Z"
         id="path5196" /><path
         d="M 3.966578,1.3849326 3.9206704,1.5270278 H 3.8091803 L 3.6047818,2.1544328 H 3.4648727 L 3.6692712,1.5270278 H 3.5577811 l 0.045908,-0.1420952 z"
         id="path5198" /><path
         d="M 4.0234169,1.3849326 H 4.3567941 L 4.3108864,1.5270278 H 4.1174184 L 4.0627664,1.6931699 H 4.2234432 L 4.1775356,1.8352651 H 4.0168587 l -0.057931,0.1770725 h 0.193468 L 4.106488,2.1544328 H 3.7731108 Z"
         id="path5200" /><path
         d="m 4.7043812,1.3849326 q 0.1005597,0 0.069955,0.098374 l -0.089629,0.2743531 q -0.013116,0.039349 -0.042629,0.056838 -0.029512,0.016396 -0.066675,0.018582 l 0.00328,0.3213538 H 4.4344003 l -0.00109,-0.3027721 0.051373,-0.1584908 h 0.080885 L 4.6202171,1.5270278 H 4.507634 L 4.3032355,2.1544328 H 4.1633264 L 4.4136326,1.3849326 Z"
         id="path5202" /><path
         d="M 4.6584729,2.0123376 H 4.854127 L 4.912058,1.8352651 H 4.818057 q -0.1016527,0 -0.069955,-0.098374 L 4.831173,1.4833058 q 0.015302,-0.049187 0.049187,-0.073234 0.034977,-0.02514 0.084164,-0.02514 h 0.2339106 l -0.045908,0.142096 H 4.9568728 l -0.054652,0.1661421 h 0.094001 q 0.1005597,0 0.069955,0.098374 l -0.08635,0.2645157 q -0.015302,0.049187 -0.05028,0.074327 -0.033884,0.024047 -0.083071,0.024047 H 4.6125652 Z"
         id="path5204" /></g></g></svg>
